<?xml version="1.0" ?><svg xmlns="http://www.w3.org/2000/svg" xmlns:xlink="http://www.w3.org/1999/xlink" version="1.1" viewBox="0 0 512 512" style="enable-background:new 0 0 512 512;" xml:space="preserve"><g id="_x32_3_x2C__Cook_Hat_x2C__Toque_x2C__Chef_x2C__Food_and_Restaurant_x2C__Accessory"><g><path d="M256,261.426c-5.983,0-10.851,4.868-10.851,10.851v151.915h21.702V272.277C266.851,266.294,261.983,261.426,256,261.426z"/><path d="M169.192,261.426c-5.983,0-10.851,4.868-10.851,10.851v151.915h21.702V272.277    C180.043,266.294,175.175,261.426,169.192,261.426z"/><path d="M321.106,445.893h-43.404h-43.404h-43.404H147.49H99.266C103.873,482.547,135.214,511,173.098,511h165.805    c37.883,0,69.224-28.452,73.832-65.106H364.51H321.106z"/><path d="M406.923,22.708c-17.291,0.162-38.523,5.991-54.859,14.688c7.942,15.072,12.446,32.225,12.446,50.413    c0,5.993-4.859,10.851-10.851,10.851s-10.851-4.858-10.851-10.851C342.808,39.942,303.866,1,256,1s-86.808,38.942-86.808,86.808    c0,5.993-4.859,10.851-10.851,10.851s-10.851-4.858-10.851-10.851c0-18.188,4.504-35.34,12.446-50.412    c-16.312-8.684-37.827-14.694-55.839-14.694c-56.254,0-102.403,45.462-103.088,101.799    c-0.628,51.617,37.347,96.034,88.335,103.319c5.346,0.764,9.317,5.342,9.317,10.742v185.629h37.979V272.277    c0-17.95,14.603-32.553,32.553-32.553c17.95,0,32.553,14.603,32.553,32.553v151.915h21.702V272.277    c0-17.95,14.604-32.553,32.553-32.553s32.553,14.603,32.553,32.553v151.915h21.702V272.277c0-17.95,14.603-32.553,32.553-32.553    c17.95,0,32.553,14.603,32.553,32.553v151.915h37.979V238.562c0-5.4,3.97-9.978,9.317-10.742    c50.988-7.285,88.964-51.702,88.335-103.319C510.3,67.639,463.406,22.161,406.923,22.708z"/><path d="M342.808,261.426c-5.983,0-10.851,4.868-10.851,10.851v151.915h21.702V272.277    C353.659,266.294,348.791,261.426,342.808,261.426z"/></g></g><g id="Layer_1"/></svg>