<?xml version="1.0" ?><!DOCTYPE svg  PUBLIC '-//W3C//DTD SVG 1.1//EN'  'http://www.w3.org/Graphics/SVG/1.1/DTD/svg11.dtd'><svg enable-background="new 0 0 24 24" height="24px" id="Layer_1" version="1.1" viewBox="0 0 24 24" width="24px" xml:space="preserve" xmlns="http://www.w3.org/2000/svg" xmlns:xlink="http://www.w3.org/1999/xlink"><g><g><path d="M17.9,16.1H9.7c-1.6,0-3-1.3-3-3V5c0-1.6,1.3-3,3-3h0.2c0.1-0.9,0.8-1.6,1.8-1.6h4.2c0.9,0,1.7,0.7,1.8,1.6h0.2    c1.6,0,3,1.3,3,3v8.1C20.8,14.8,19.5,16.1,17.9,16.1z M9.7,3.1c-1.1,0-2,0.9-2,2v8.1c0,1.1,0.9,2,2,2h8.2c1.1,0,2-0.9,2-2V5    c0-1.1-0.9-2-2-2h-0.7c-0.3,0-0.5-0.2-0.5-0.5V2.2c0-0.4-0.4-0.8-0.8-0.8h-4.2c-0.4,0-0.8,0.4-0.8,0.8v0.3c0,0.3-0.2,0.5-0.5,0.5    H9.7z"/></g><g><path d="M13.8,12.4c-2,0-3.6-1.6-3.6-3.6c0-2,1.6-3.6,3.6-3.6c2,0,3.6,1.6,3.6,3.6C17.4,10.8,15.8,12.4,13.8,12.4z M13.8,6.2    c-1.4,0-2.6,1.2-2.6,2.6c0,1.5,1.2,2.6,2.6,2.6c1.4,0,2.6-1.2,2.6-2.6C16.4,7.4,15.2,6.2,13.8,6.2z"/></g><g><path d="M13.8,10.1c-0.7,0-1.3-0.6-1.3-1.3c0-0.7,0.6-1.3,1.3-1.3c0.7,0,1.3,0.6,1.3,1.3C15.1,9.5,14.5,10.1,13.8,10.1z M13.8,8.5    c-0.1,0-0.3,0.1-0.3,0.3c0,0.3,0.5,0.3,0.5,0C14.1,8.7,13.9,8.5,13.8,8.5z"/></g><g><g><g><path d="M6.1,21.1H3.7c-0.3,0-0.5-0.2-0.5-0.5v-2.5c0-0.3,0.2-0.5,0.5-0.5h2.5c0.3,0,0.5,0.2,0.5,0.5s-0.2,0.5-0.5,0.5h-2v1.5h2      c0.3,0,0.5,0.2,0.5,0.5S6.4,21.1,6.1,21.1z"/></g><g><path d="M3.7,23.5c-0.3,0-0.5-0.2-0.5-0.5v-2.5c0-0.3,0.2-0.5,0.5-0.5h2.5c0.3,0,0.5,0.2,0.5,0.5s-0.2,0.5-0.5,0.5h-2v2      C4.2,23.3,3.9,23.5,3.7,23.5z"/></g></g><g><g><path d="M10.9,21.1c-0.3,0-0.5-0.2-0.5-0.5v-2H8.9v2c0,0.3-0.2,0.5-0.5,0.5s-0.5-0.2-0.5-0.5v-2.5c0-0.3,0.2-0.5,0.5-0.5h2.5      c0.3,0,0.5,0.2,0.5,0.5v2.5C11.4,20.9,11.1,21.1,10.9,21.1z"/></g><g><path d="M10.9,23.5H8.4c-0.3,0-0.5-0.2-0.5-0.5v-2.5c0-0.3,0.2-0.5,0.5-0.5s0.5,0.2,0.5,0.5v2h1.5v-2c0-0.3,0.2-0.5,0.5-0.5      s0.5,0.2,0.5,0.5V23C11.4,23.3,11.1,23.5,10.9,23.5z"/></g></g><g><g><path d="M15.6,21.1c-0.3,0-0.5-0.2-0.5-0.5v-2h-1.5v2c0,0.3-0.2,0.5-0.5,0.5s-0.5-0.2-0.5-0.5v-2.5c0-0.3,0.2-0.5,0.5-0.5h2.5      c0.3,0,0.5,0.2,0.5,0.5v2.5C16.1,20.9,15.9,21.1,15.6,21.1z"/></g><g><path d="M15.6,23.5h-2.5c-0.3,0-0.5-0.2-0.5-0.5v-2.5c0-0.3,0.2-0.5,0.5-0.5s0.5,0.2,0.5,0.5v2h1.5v-2c0-0.3,0.2-0.5,0.5-0.5      s0.5,0.2,0.5,0.5V23C16.1,23.3,15.9,23.5,15.6,23.5z"/></g></g><g><g><path d="M20.3,21.1h-2.5c-0.3,0-0.5-0.2-0.5-0.5s0.2-0.5,0.5-0.5h2v-2c0-0.3,0.2-0.5,0.5-0.5s0.5,0.2,0.5,0.5v2.5      C20.8,20.9,20.6,21.1,20.3,21.1z"/></g><g><path d="M20.3,23.5h-2.5c-0.3,0-0.5-0.2-0.5-0.5v-2.5c0-0.3,0.2-0.5,0.5-0.5h2.5c0.3,0,0.5,0.2,0.5,0.5V23      C20.8,23.3,20.6,23.5,20.3,23.5z M18.4,22.5h1.5v-1.5h-1.5V22.5z"/></g></g></g><g><g><g><path d="M3.7,13.7c-0.3,0-0.5-0.2-0.5-0.5v-2.5c0-0.3,0.2-0.5,0.5-0.5s0.5,0.2,0.5,0.5v2.5C4.2,13.4,3.9,13.7,3.7,13.7z"/></g><g><path d="M3.7,16.1c-0.3,0-0.5-0.2-0.5-0.5v-2.5c0-0.3,0.2-0.5,0.5-0.5s0.5,0.2,0.5,0.5v2.5C4.2,15.9,3.9,16.1,3.7,16.1z"/></g></g></g></g></svg>