<?xml version="1.0" ?><svg enable-background="new 0 0 512 512" id="Layer_2" version="1.1" viewBox="0 0 512 512" xml:space="preserve" xmlns="http://www.w3.org/2000/svg" xmlns:xlink="http://www.w3.org/1999/xlink"><g><g><g><g><path d="      M146.151,114.586c0,0-39.573-68.487-82.534-83.931c0,0,3.557,5.769,5.729,18.761c3.003,17.964,1.803,65.767,25.644,82.914      c18.431,13.256,35.738,14.058,35.738,14.058" fill="none" stroke="#474747" stroke-linecap="round" stroke-linejoin="round" stroke-miterlimit="10" stroke-width="15"/><path d="      M175.333,111.986c0,0,26.842-74.404,66.396-97.2c0,0-2.481,6.307-2.322,19.478c0.22,18.211,9.853,65.05-10.582,86.141      c-15.797,16.305-32.689,20.155-32.689,20.155" fill="none" stroke="#474747" stroke-linecap="round" stroke-linejoin="round" stroke-miterlimit="10" stroke-width="15"/><path d="      M148.012,164.075l8.66-25.136c2.106-6.114,10.412-6.945,13.688-1.369l13.604,23.152c2.816,4.793-0.32,10.885-5.857,11.379      l-22.264,1.984C150.377,174.571,146.225,169.263,148.012,164.075z" fill="none" stroke="#474747" stroke-linecap="round" stroke-linejoin="round" stroke-miterlimit="10" stroke-width="15"/></g><path d="     M122.109,178.194c0,0-22.786-7.589-56.745-36.148c-6.084-5.116-15.276-0.19-14.338,7.704     c4.998,42.08,15.835,84.114,37.133,116.724" fill="none" stroke="#474747" stroke-linecap="round" stroke-linejoin="round" stroke-miterlimit="10" stroke-width="15"/><path d="     M212.117,170.693c0,0,22.349-12.129,50.724-46.242c5.084-6.111,15.002-2.887,15.475,5.048     c2.996,50.299-7.097,114.253-30.813,153.198" fill="none" stroke="#474747" stroke-linecap="round" stroke-linejoin="round" stroke-miterlimit="10" stroke-width="15"/><path d="     M55.674,143.905c0,0,28.439,86.234,134.052,119.671" fill="none" stroke="#474747" stroke-linecap="round" stroke-linejoin="round" stroke-miterlimit="10" stroke-width="15"/></g><path d="    M439.416,239.313c35.961,8.888,57.694,20.449,57.694,33.088c0,28.049-107.034,50.788-239.068,50.788S18.974,300.45,18.974,272.401    c0-11.298,17.364-21.734,46.732-30.169" fill="none" stroke="#474747" stroke-linecap="round" stroke-linejoin="round" stroke-miterlimit="10" stroke-width="15"/><path d="    M298.869,222.351c33.293,1.217,58.676,3.115,85.741,6.935" fill="none" stroke="#474747" stroke-linecap="round" stroke-linejoin="round" stroke-miterlimit="10" stroke-width="15"/><path d="    M497.11,274.932c-15.845,108.117-59.097,132.277-72.519,148.181c-2.266,2.685-4.405,5.455-6.489,8.285    c-18.513,25.137-74.515,42.268-160.06,42.268c-84.032,0-145.39-20.419-160.159-41.686c-2.802-4.035-5.979-7.792-9.23-11.475    c-16.216-18.373-56.505-39.305-69.679-145.573" fill="none" stroke="#474747" stroke-linecap="round" stroke-linejoin="round" stroke-miterlimit="10" stroke-width="15"/><path d="    M111.051,447.041v16.086c0,19.3,65.313,34.945,145.881,34.945s145.881-15.645,145.881-34.945v-16.086" fill="none" stroke="#474747" stroke-linecap="round" stroke-linejoin="round" stroke-miterlimit="10" stroke-width="15"/><path d="    M251.764,173.907c0,0-22.502,47.147-80.364,79.293" fill="none" stroke="#474747" stroke-linecap="round" stroke-linejoin="round" stroke-miterlimit="10" stroke-width="15"/><path d="    M127.467,168.55c0,0-13.93,30.003,1.072,65.363" fill="none" stroke="#474747" stroke-linecap="round" stroke-linejoin="round" stroke-miterlimit="10" stroke-width="15"/><path d="    M206.521,164.264c0,0,14.168,26.788,1.31,63.22" fill="none" stroke="#474747" stroke-linecap="round" stroke-linejoin="round" stroke-miterlimit="10" stroke-width="15"/><path d="    M131.911,282.042c-1.216-0.112-2.347-0.22-3.372-0.322" fill="none" stroke="#474747" stroke-linecap="round" stroke-linejoin="round" stroke-miterlimit="10" stroke-width="15"/><path d="    M175.394,286.025c-5.322-0.273-10.161-0.742-17.239-1.267" fill="none" stroke="#474747" stroke-linecap="round" stroke-linejoin="round" stroke-miterlimit="10" stroke-width="15"/><path d="    M285.986,282.137c-22.088,2.032-48.359,3.21-76.548,3.21" fill="none" stroke="#474747" stroke-linecap="round" stroke-linejoin="round" stroke-miterlimit="10" stroke-width="15"/><path d="    M292.782,252.744c37.924,1.109,58.634,5.464,58.634,12.243c0,4.854-11.848,9.312-31.625,12.811" fill="none" stroke="#474747" stroke-linecap="round" stroke-linejoin="round" stroke-miterlimit="10" stroke-width="15"/></g><path d="   M398.605,269.531l53.157-160.922c3.716-11.249,16.111-17.075,27.144-12.759l0,0c11.033,4.316,16.183,17.007,11.278,27.791   l-70.16,154.269" fill="none" stroke="#474747" stroke-linecap="round" stroke-linejoin="round" stroke-miterlimit="10" stroke-width="15"/></g></svg>