<?xml version="1.0" ?><svg viewBox="0 0 512 512" xmlns="http://www.w3.org/2000/svg"><g id="outline"><path d="M456,72H414.4a31.94,31.94,0,0,0-28.235,16.941h0L344,168h0V112a8,8,0,0,0-12.8-6.4l-3.378,2.533a158.476,158.476,0,0,0-16.293,14.073A72.051,72.051,0,0,0,299.2,110.4l-6.4-4.8A8,8,0,0,0,280,112v80H264V136a56.092,56.092,0,0,0-40-53.659V48a32,32,0,0,0-64,0V72a8,8,0,0,0,16,0V48a16,16,0,0,1,32,0V80a8,8,0,0,0-8,8V192h-8a8,8,0,0,0-7.491,10.809l18.16,48.426A32.15,32.15,0,0,0,232.632,272H329.51a31.918,31.918,0,0,0,28.318-17.1l71-134.9H456a24,24,0,0,0,0-48ZM328,128.655V160H301.639A144.728,144.728,0,0,1,328,128.655ZM299.716,133a7.979,7.979,0,0,0,.984,1.018q-2.423,2.924-4.7,5.961V128.808A55.993,55.993,0,0,1,299.716,133ZM296,176h32v16H296Zm-48-40v24H216V96.8A40.071,40.071,0,0,1,248,136Zm-32,40h32v16H216Zm240-72H424a8,8,0,0,0-7.079,4.274L343.669,247.452A15.958,15.958,0,0,1,329.51,256H232.632a16.073,16.073,0,0,1-14.981-10.382L203.544,208H336a8,8,0,0,0,7.059-4.235L400.282,96.471h0A15.97,15.97,0,0,1,414.4,88H456a8,8,0,0,1,0,16Z"/><path d="M424,288H56a8,8,0,0,0-8,8A184.364,184.364,0,0,0,152,461.735V488a8,8,0,0,0,8,8H320a8,8,0,0,0,8-8V461.735A184.364,184.364,0,0,0,432,296,8,8,0,0,0,424,288Zm-8.19,16a167.492,167.492,0,0,1-9.927,49.281c-9.042-1.381-14.7-4.58-21.133-8.237C375.639,339.867,365.312,334,345.6,334s-30.042,5.867-39.154,11.044C297.985,349.85,290.68,354,275.193,354s-22.79-4.15-31.248-8.956C234.834,339.867,224.507,334,204.793,334s-30.041,5.867-39.151,11.045C157.184,349.85,149.88,354,134.4,354s-22.789-4.15-31.246-8.955c-5.814-3.305-12.137-6.883-21.067-9.045H104a8,8,0,0,0,0-16H65.746c-.764-5.278-1.3-10.613-1.556-16ZM312,480H168V464H312Zm7.59-32H160.41a168.366,168.366,0,0,1-87.257-97.419c9.6,1.3,15.5,4.632,22.092,8.374C104.355,364.133,114.682,370,134.4,370s30.04-5.867,39.151-11.044C182,354.15,189.308,350,204.793,350s22.79,4.15,31.248,8.956C245.152,364.133,255.479,370,275.193,370s30.042-5.867,39.154-11.044C322.805,354.15,330.11,350,345.6,350s22.791,4.15,31.25,8.956c6.11,3.471,12.882,7.313,22.695,9.424A168.225,168.225,0,0,1,319.59,448Z"/><circle cx="232" cy="136" r="8"/><path d="M115,272a8,8,0,0,0,8-8c0-6.524,1.648-9.382,3.93-13.336,2.7-4.688,6.07-10.522,6.07-21.332a36.849,36.849,0,0,0-3.619-16.808,8,8,0,1,0-14.411,6.952,21.023,21.023,0,0,1,2.03,9.856c0,6.524-1.648,9.382-3.93,13.336C110.366,247.356,107,253.19,107,264A8,8,0,0,0,115,272Z"/><path d="M114.56,199.982c.179.012.356.018.532.018a8,8,0,0,0,7.975-7.476c.334-5.079,1.814-7.644,3.862-11.194,2.7-4.687,6.071-10.521,6.071-21.33a8,8,0,0,0-16,0c0,6.523-1.648,9.38-3.929,13.334-2.4,4.163-5.391,9.343-5.969,18.142A8,8,0,0,0,114.56,199.982Z"/><path d="M155,272a8,8,0,0,0,8-8c0-6.525,1.648-9.382,3.929-13.336a8,8,0,1,0-13.858-8C150.366,247.355,147,253.189,147,264A8,8,0,0,0,155,272Z"/><path d="M156.721,225.163a8,8,0,0,0,15.83-2.326A38.969,38.969,0,0,0,166.93,208c-2.282-3.954-3.93-6.812-3.93-13.337s1.648-9.38,3.929-13.333c2.7-4.687,6.071-10.521,6.071-21.33a8,8,0,0,0-16,0c0,6.523-1.648,9.38-3.929,13.334-2.7,4.687-6.071,10.521-6.071,21.329s3.366,16.644,6.07,21.332C154.8,218.988,156.161,221.352,156.721,225.163Z"/><path d="M387,264c0-6.524,1.648-9.382,3.93-13.336,2.7-4.688,6.07-10.522,6.07-21.332a8,8,0,0,0-16,0c0,6.524-1.648,9.382-3.93,13.336C374.366,247.356,371,253.19,371,264a8,8,0,0,0,16,0Z"/><path d="M427.472,216.085a8,8,0,0,0-6.751,9.079,28.923,28.923,0,0,1,.279,4.168c0,6.524-1.648,9.382-3.93,13.336C414.366,247.356,411,253.19,411,264a8,8,0,0,0,16,0c0-6.524,1.648-9.382,3.93-13.336,2.7-4.688,6.07-10.522,6.07-21.332a44.332,44.332,0,0,0-.449-6.5A8,8,0,0,0,427.472,216.085Z"/><path d="M429,152a8,8,0,0,0-8,8c0,6.523-1.648,9.38-3.929,13.334-2.705,4.687-6.071,10.521-6.071,21.329a44.716,44.716,0,0,0,.451,6.5,8,8,0,0,0,7.9,6.836,8.094,8.094,0,0,0,1.176-.086,8,8,0,0,0,6.749-9.08,28.841,28.841,0,0,1-.28-4.172c0-6.523,1.648-9.38,3.929-13.333C433.634,176.643,437,170.809,437,160A8,8,0,0,0,429,152Z"/><path d="M75,272a8,8,0,0,0,8-8c0-6.525,1.648-9.382,3.929-13.336a8,8,0,1,0-13.858-8C70.366,247.355,67,253.189,67,264A8,8,0,0,0,75,272Z"/><path d="M76.721,225.163a8,8,0,0,0,15.83-2.326A38.969,38.969,0,0,0,86.93,208c-2.282-3.954-3.93-6.812-3.93-13.337s1.648-9.38,3.929-13.333C89.634,176.643,93,170.809,93,160a8,8,0,0,0-16,0c0,6.523-1.648,9.38-3.929,13.334C70.366,178.021,67,183.855,67,194.663S70.366,211.307,73.07,216C74.8,218.988,76.161,221.352,76.721,225.163Z"/><path d="M200,368a24,24,0,1,0,24,24A24.027,24.027,0,0,0,200,368Zm0,32a8,8,0,1,1,8-8A8.009,8.009,0,0,1,200,400Z"/><path d="M328.451,372.68l-59.422,23.768a8,8,0,0,0-4.457,10.4,40,40,0,1,0,74.278-29.711A8,8,0,0,0,328.451,372.68Zm-17.826,41.595a24.046,24.046,0,0,1-26.964-6.447l42.032-16.812A24.041,24.041,0,0,1,310.625,414.275Z"/><rect height="16" width="16" x="232" y="408"/><rect height="16" width="16" x="360" y="368"/><rect height="16" width="16" x="160" y="416"/><rect height="16" width="16" x="136" y="384"/><path d="M136,336h16a8,8,0,0,0,0-16H136a8,8,0,0,0,0,16Z"/></g></svg>