<?xml version="1.0" ?><svg height="128" id="svg6449" version="1.1" viewBox="0 0 33.866666 33.866668" width="128" xmlns="http://www.w3.org/2000/svg" xmlns:cc="http://creativecommons.org/ns#" xmlns:dc="http://purl.org/dc/elements/1.1/" xmlns:inkscape="http://www.inkscape.org/namespaces/inkscape" xmlns:rdf="http://www.w3.org/1999/02/22-rdf-syntax-ns#" xmlns:sodipodi="http://sodipodi.sourceforge.net/DTD/sodipodi-0.dtd" xmlns:svg="http://www.w3.org/2000/svg"><defs id="defs6443"><clipPath clipPathUnits="userSpaceOnUse" id="clipPath5143"><ellipse cx="209.94763" cy="1573.1123" id="ellipse5145" rx="55.764446" ry="55.766594" style="display:inline;opacity:0.43500001;fill:#ffaaaa;fill-rule:evenodd;stroke:#333333;stroke-width:4.21448183;stroke-linecap:round;stroke-linejoin:round;stroke-miterlimit:4;stroke-dasharray:none;stroke-dashoffset:6.5999999;stroke-opacity:1"/></clipPath><clipPath clipPathUnits="userSpaceOnUse" id="clipPath11046"><ellipse cx="209.94763" cy="1380.6261" id="ellipse11048" rx="55.76445" ry="55.766594" style="display:inline;opacity:0.47600002;fill:#ffaaaa;fill-rule:evenodd;stroke:#333333;stroke-width:4.21448183;stroke-linecap:round;stroke-linejoin:round;stroke-miterlimit:4;stroke-dasharray:none;stroke-dashoffset:6.5999999;stroke-opacity:1"/></clipPath><clipPath clipPathUnits="userSpaceOnUse" id="clipPath8754"><ellipse cx="205.48343" cy="1298.3982" id="ellipse8756" rx="78.18396" ry="83.010139" style="display:inline;opacity:0.419;fill:#ffaaaa;fill-opacity:1;fill-rule:evenodd;stroke:#333333;stroke-width:4.21448183;stroke-linecap:round;stroke-linejoin:round;stroke-miterlimit:4;stroke-dasharray:none;stroke-dashoffset:6.5999999;stroke-opacity:1"/></clipPath><clipPath clipPathUnits="userSpaceOnUse" id="clipPath5060"><ellipse cx="68.499527" cy="1656.6876" id="ellipse5062" rx="71.409416" ry="71.223892" style="display:inline;opacity:0.45199998;fill:#ffe680;fill-rule:evenodd;stroke:#333333;stroke-width:4.21448183;stroke-linecap:round;stroke-linejoin:round;stroke-miterlimit:4;stroke-dasharray:none;stroke-dashoffset:6.5999999;stroke-opacity:1"/></clipPath><clipPath clipPathUnits="userSpaceOnUse" id="clipPath6174"><ellipse cx="128.2972" cy="1416.0679" id="ellipse6176" rx="55.76445" ry="55.766594" style="display:inline;opacity:0.572;fill:#ff9696;fill-opacity:1;fill-rule:evenodd;stroke:#333333;stroke-width:4.21448183;stroke-linecap:round;stroke-linejoin:round;stroke-miterlimit:4;stroke-dasharray:none;stroke-dashoffset:6.5999999;stroke-opacity:1"/></clipPath><clipPath clipPathUnits="userSpaceOnUse" id="clipPath5292"><ellipse cx="554.68481" cy="1234.8002" id="ellipse5294" rx="46.906162" ry="46.90797" style="display:inline;opacity:0.469;fill:#ffaaaa;fill-rule:evenodd;stroke:#333333;stroke-width:3.5625;stroke-linecap:round;stroke-linejoin:round;stroke-miterlimit:4;stroke-dasharray:none;stroke-dashoffset:6.5999999;stroke-opacity:1"/></clipPath><clipPath clipPathUnits="userSpaceOnUse" id="clipPath6537"><ellipse cx="2254.0229" cy="1364.222" id="ellipse6539" rx="114.45508" ry="114.4127" style="display:inline;fill:#d9ed88;fill-opacity:0.6;fill-rule:evenodd;stroke:#333333;stroke-width:9.00000095;stroke-linecap:round;stroke-linejoin:round;stroke-miterlimit:4;stroke-dasharray:none;stroke-dashoffset:6.5999999;stroke-opacity:1"/></clipPath></defs><g id="layer1" transform="translate(0,-263.13332)"><g id="g8776" transform="matrix(0.28222223,0,0,0.28222223,-42.318556,-99.428082)"><ellipse cx="211.01534" cy="1396.4498" id="ellipse8722" rx="53.059589" ry="7.7109265" style="opacity:0.694;fill:#808080;fill-rule:evenodd;stroke:none;stroke-width:0.47325075px;stroke-linecap:butt;stroke-linejoin:miter;stroke-opacity:1"/><ellipse cx="209.94763" cy="1343.0458" id="ellipse8724" rx="55.76445" ry="55.766594" style="display:inline;fill:#ffaaaa;fill-opacity:1;fill-rule:evenodd;stroke:#333333;stroke-width:4.21448183;stroke-linecap:round;stroke-linejoin:round;stroke-miterlimit:4;stroke-dasharray:none;stroke-dashoffset:6.5999999;stroke-opacity:1"/><path d="m 257.83155,1337.9426 c 1.65231,6.0465 0.68641,11.0479 -0.61012,16.0948" id="path8726" style="opacity:1;fill:none;fill-opacity:0;fill-rule:evenodd;stroke:#ffffff;stroke-width:2.80965424;stroke-linecap:round;stroke-linejoin:round;stroke-miterlimit:4;stroke-dasharray:none;stroke-dashoffset:0;stroke-opacity:1"/><ellipse cx="381.91501" cy="1300.8473" id="ellipse8728" rx="1.6825458" ry="1.6826104" style="fill:#ffffff;fill-opacity:1;fill-rule:evenodd;stroke:#ffffff;stroke-width:0.46827573px;stroke-linecap:butt;stroke-linejoin:miter;stroke-opacity:1" transform="rotate(5.4689904)"/><path d="m 163.96494,1322.9831 c 0.0371,0.023 3.19764,-11.8609 19.45002,-20.2782 7.24571,-3.7379 16.25639,-6.0739 26.24495,-5.8102 0.12325,0 0.24638,0.01 0.36939,0.011 10.20392,0.3289 19.27236,3.2296 26.47851,7.0984 7.38317,3.9594 12.45666,8.7569 15.5429,12.4751 3.09292,3.7262 4.1926,6.2834 3.88811,6.504 -0.39823,0.2885 -2.16586,-1.767 -5.61357,-4.845 -3.46496,-3.0934 -8.58802,-7.1296 -15.66481,-10.4795 -6.90524,-3.2647 -15.36887,-5.7277 -24.78162,-6.0229 -0.11343,0 -0.22697,-0.01 -0.3406,-0.01 -9.20428,-0.23 -17.49728,1.6828 -24.30735,4.8014 -7.21896,3.2897 -12.43413,7.8367 -15.77649,11.1732 -3.38962,3.3838 -5.05743,5.6538 -5.48944,5.3823 z" id="path8730" style="opacity:1;fill:#ffffff;fill-opacity:1;fill-rule:evenodd;stroke:none;stroke-width:9.46501446;stroke-linecap:round;stroke-linejoin:round;stroke-miterlimit:4;stroke-dasharray:none;stroke-dashoffset:0;stroke-opacity:1"/><g clip-path="url(#clipPath8754)" id="g8743" style="stroke-width:5.959126;stroke-miterlimit:4;stroke-dasharray:none" transform="matrix(0.71324665,0,0,0.67180464,63.387272,468.71704)"><path d="m 259.74851,1357.5705 c -2.56759,-40.4289 -35.70025,-46.4685 -35.70025,-46.4685 l -34.65505,-1.7776 c 0,0 -37.4424,6.2231 -40.0338,49.036 -1.84166,30.4263 20.68215,57.4788 55.48833,59.041 35.06884,1.5738 56.71715,-31.2306 54.90077,-59.8309 z" id="path8593" style="fill:#f34444;fill-opacity:1;fill-rule:evenodd;stroke:none;stroke-width:5.959126;stroke-linecap:round;stroke-linejoin:round;stroke-miterlimit:4;stroke-dasharray:none;stroke-opacity:1"/><path d="m 259.74851,1357.5705 c -2.56759,-40.4289 -35.70025,-46.4685 -35.70025,-46.4685 l -34.65505,-1.7776 c 0,0 -37.4424,6.2231 -40.0338,49.036 -1.84166,30.4263 20.68215,57.4788 55.48833,59.041 35.06884,1.5738 56.71715,-31.2306 54.90077,-59.8309 z" id="path8639" style="fill:#f34444;fill-opacity:1;fill-rule:evenodd;stroke:#333333;stroke-width:5.959126;stroke-linecap:round;stroke-linejoin:round;stroke-miterlimit:4;stroke-dasharray:none;stroke-opacity:1"/><path d="m 191.45314,1311.8757 c 0,0 -34.86926,3.6356 -39.03165,45.1374 -2.85766,28.4929 19.09506,57.5378 53.03773,57.4183 4.09505,-0.014 7.98929,-0.1277 11.68052,-0.8685 7.75427,-14.2087 -15.02886,-30.4889 -17.52297,-101.2609 z" id="path8684" style="opacity:1;vector-effect:none;fill:#e63434;fill-opacity:1;fill-rule:evenodd;stroke:none;stroke-width:5.959126;stroke-linecap:round;stroke-linejoin:round;stroke-miterlimit:4;stroke-dasharray:none;stroke-dashoffset:0;stroke-opacity:1"/><path d="m 212.89205,1312.2304 c -2.48814,-20.6321 6.2257,-21.2786 14.33919,-27.4959 -4.08941,10.5481 -9.52225,15.4964 -2.70682,26.673 -1.43046,1.9453 -7.38445,2.8234 -11.63237,0.8229 z" id="path8619" style="fill:#c83737;fill-opacity:1;fill-rule:evenodd;stroke:#333333;stroke-width:5.959126;stroke-linecap:round;stroke-linejoin:round;stroke-miterlimit:4;stroke-dasharray:none;stroke-opacity:1"/><path d="m 202.31017,1312.2268 c 2.48814,-20.632 -7.04859,-21.6443 -15.16207,-27.8615 4.08941,10.5481 9.15653,16.3192 2.3411,27.4958 2.63434,0.7918 3.71004,3.3306 12.82097,0.3657 z" id="path8621" style="fill:#c83737;fill-opacity:1;fill-rule:evenodd;stroke:#333333;stroke-width:5.959126;stroke-linecap:round;stroke-linejoin:round;stroke-miterlimit:4;stroke-dasharray:none;stroke-opacity:1"/><path d="m 200.66096,1312.921 c 1.34459,-10.5376 1.43995,-21.1118 5.82566,-32.0839 6.74181,10.0163 4.51133,21.3848 8.02297,31.9394 -4.46476,1.8387 -9.6865,1.9579 -13.84863,0.1445 z" id="path8617" style="fill:#c83737;fill-opacity:1;fill-rule:evenodd;stroke:#333333;stroke-width:5.959126;stroke-linecap:round;stroke-linejoin:round;stroke-miterlimit:4;stroke-dasharray:none;stroke-opacity:1"/></g><path d="m 233.9822,1364.843 c 3.3755,3.5122 5.33278,10.0451 5.61032,18.3805" id="path8758" style="opacity:1;fill:none;fill-opacity:1;fill-rule:evenodd;stroke:#ffffff;stroke-width:2.80965424;stroke-linecap:round;stroke-linejoin:round;stroke-miterlimit:4;stroke-dasharray:none;stroke-dashoffset:0;stroke-opacity:1"/><ellipse cx="229.90921" cy="1361.2228" id="ellipse8760" rx="1.6879777" ry="1.6880424" style="fill:#ffffff;fill-opacity:1;fill-rule:evenodd;stroke:none;stroke-width:0.47325078px;stroke-linecap:butt;stroke-linejoin:miter;stroke-opacity:1"/></g></g></svg>