<?xml version="1.0" ?><svg height="128" id="svg6449" version="1.1" viewBox="0 0 33.866666 33.866668" width="128" xmlns="http://www.w3.org/2000/svg" xmlns:cc="http://creativecommons.org/ns#" xmlns:dc="http://purl.org/dc/elements/1.1/" xmlns:inkscape="http://www.inkscape.org/namespaces/inkscape" xmlns:rdf="http://www.w3.org/1999/02/22-rdf-syntax-ns#" xmlns:sodipodi="http://sodipodi.sourceforge.net/DTD/sodipodi-0.dtd" xmlns:svg="http://www.w3.org/2000/svg"><defs id="defs6443"><clipPath clipPathUnits="userSpaceOnUse" id="clipPath5143"><ellipse cx="209.94763" cy="1573.1123" id="ellipse5145" rx="55.764446" ry="55.766594" style="display:inline;opacity:0.43500001;fill:#ffaaaa;fill-rule:evenodd;stroke:#333333;stroke-width:4.21448183;stroke-linecap:round;stroke-linejoin:round;stroke-miterlimit:4;stroke-dasharray:none;stroke-dashoffset:6.5999999;stroke-opacity:1"/></clipPath><clipPath clipPathUnits="userSpaceOnUse" id="clipPath11046"><ellipse cx="209.94763" cy="1380.6261" id="ellipse11048" rx="55.76445" ry="55.766594" style="display:inline;opacity:0.47600002;fill:#ffaaaa;fill-rule:evenodd;stroke:#333333;stroke-width:4.21448183;stroke-linecap:round;stroke-linejoin:round;stroke-miterlimit:4;stroke-dasharray:none;stroke-dashoffset:6.5999999;stroke-opacity:1"/></clipPath><clipPath clipPathUnits="userSpaceOnUse" id="clipPath8754"><ellipse cx="205.48343" cy="1298.3982" id="ellipse8756" rx="78.18396" ry="83.010139" style="display:inline;opacity:0.419;fill:#ffaaaa;fill-opacity:1;fill-rule:evenodd;stroke:#333333;stroke-width:4.21448183;stroke-linecap:round;stroke-linejoin:round;stroke-miterlimit:4;stroke-dasharray:none;stroke-dashoffset:6.5999999;stroke-opacity:1"/></clipPath><clipPath clipPathUnits="userSpaceOnUse" id="clipPath5060"><ellipse cx="68.499527" cy="1656.6876" id="ellipse5062" rx="71.409416" ry="71.223892" style="display:inline;opacity:0.45199998;fill:#ffe680;fill-rule:evenodd;stroke:#333333;stroke-width:4.21448183;stroke-linecap:round;stroke-linejoin:round;stroke-miterlimit:4;stroke-dasharray:none;stroke-dashoffset:6.5999999;stroke-opacity:1"/></clipPath><clipPath clipPathUnits="userSpaceOnUse" id="clipPath6174"><ellipse cx="128.2972" cy="1416.0679" id="ellipse6176" rx="55.76445" ry="55.766594" style="display:inline;opacity:0.572;fill:#ff9696;fill-opacity:1;fill-rule:evenodd;stroke:#333333;stroke-width:4.21448183;stroke-linecap:round;stroke-linejoin:round;stroke-miterlimit:4;stroke-dasharray:none;stroke-dashoffset:6.5999999;stroke-opacity:1"/></clipPath><clipPath clipPathUnits="userSpaceOnUse" id="clipPath5292"><ellipse cx="554.68481" cy="1234.8002" id="ellipse5294" rx="46.906162" ry="46.90797" style="display:inline;opacity:0.469;fill:#ffaaaa;fill-rule:evenodd;stroke:#333333;stroke-width:3.5625;stroke-linecap:round;stroke-linejoin:round;stroke-miterlimit:4;stroke-dasharray:none;stroke-dashoffset:6.5999999;stroke-opacity:1"/></clipPath><clipPath clipPathUnits="userSpaceOnUse" id="clipPath6537"><ellipse cx="2254.0229" cy="1364.222" id="ellipse6539" rx="114.45508" ry="114.4127" style="display:inline;fill:#d9ed88;fill-opacity:0.6;fill-rule:evenodd;stroke:#333333;stroke-width:9.00000095;stroke-linecap:round;stroke-linejoin:round;stroke-miterlimit:4;stroke-dasharray:none;stroke-dashoffset:6.5999999;stroke-opacity:1"/></clipPath></defs><g id="layer1" transform="translate(0,-263.13332)"><g id="g6715" transform="matrix(0.13015469,0,0,0.13015469,-169.9532,207.99908)"><ellipse cx="1435.8801" cy="666.33112" id="ellipse5696" rx="108.59747" ry="15.782379" style="opacity:0.694;fill:#808080;fill-rule:evenodd;stroke:none;stroke-width:1px;stroke-linecap:butt;stroke-linejoin:miter;stroke-opacity:1"/><ellipse cx="1435.8801" cy="551.03137" id="ellipse5562" rx="121.22788" ry="121.2307" style="display:inline;fill:#dde9af;fill-rule:evenodd;stroke:#333333;stroke-width:9;stroke-linecap:round;stroke-linejoin:round;stroke-miterlimit:4;stroke-dasharray:none;stroke-dashoffset:6.5999999;stroke-opacity:1"/><path d="m 1425.7726,556.731 c 0,0 -24.1032,1.84385 -34.7812,-2.76548 -11.9494,-5.15827 -28.9484,-26.20324 -28.9484,-26.20324 0,0 31.5182,-7.75536 42.2083,-2.18559 11.1933,5.83203 19.2859,22.05686 21.5213,31.15431 z" id="path5564" style="display:inline;fill:#88aa00;fill-rule:evenodd;stroke:#333333;stroke-width:9;stroke-linecap:round;stroke-linejoin:round;stroke-miterlimit:4;stroke-dasharray:none;stroke-dashoffset:0;stroke-opacity:1"/><path d="m 1434.1661,556.42229 c 0,0 0.4694,-6.04496 0.3559,-9.06766 -0.1367,-3.63639 -1.154,-7.20789 -1.2455,-10.84564 -0.1164,-4.63077 -2.3206,-10.52651 0.8896,-13.86816 1.5693,-1.63368 5.2748,-2.42066 6.7611,-0.71121 1.7643,2.02903 -1.9002,5.13573 -1.9571,7.82308 -0.187,8.83161 -0.8388,19.50263 5.3377,25.95838 -3.4537,0.8218 -7.1221,3.3596 -10.1417,0.71121 z" id="path5566" style="display:inline;fill:#c87137;fill-rule:evenodd;stroke:#333333;stroke-width:9;stroke-linecap:round;stroke-linejoin:round;stroke-miterlimit:4;stroke-dasharray:none;stroke-dashoffset:0;stroke-opacity:1"/><path d="m 1450.3258,561.58429 c -14.0333,0.23669 -32.0925,8.139 -35.0064,11.82914 -10.7389,13.59909 -7.8848,22.30377 -12.8763,33.00691 -6.2094,13.31439 -12.5716,24.38044 -21.1611,38.66081 -2.2826,3.7948 -4.071,7.52139 -5.4486,11.15868 18.2835,10.46799 38.9794,15.99034 60.0474,16.02258 25.2515,-0.0541 49.8555,-7.99256 70.3774,-22.70659 -3.9582,-11.49854 -13.6721,-23.17693 -20.8402,-34.56064 -11.351,-18.02645 -12.9415,-53.67712 -35.0922,-53.41089 z" id="path5568" style="display:inline;fill:#bcd35f;fill-opacity:1;fill-rule:evenodd;stroke:#333333;stroke-width:9;stroke-linecap:round;stroke-linejoin:round;stroke-miterlimit:4;stroke-dasharray:none;stroke-dashoffset:0;stroke-opacity:1"/><path d="m 1449.3668,565.65261 c -12.7787,0.22107 -29.2217,7.60191 -31.8752,11.04861 -9.7788,12.70201 -7.1804,20.83204 -11.7257,30.82911 -5.6542,12.43607 -11.4484,22.77292 -19.2699,36.11124 -2.0786,3.54447 -4.006,7.32541 -5.2603,10.72276 8.9605,5.26231 18.874,8.5338 29.3707,10.76397 23.8487,-23.55406 46.8453,-68.06654 41.7604,-99.24488 -0.9525,-0.16186 -1.95,-0.24376 -3,-0.23081 z" id="path5675" style="opacity:1;fill:#a1b44b;fill-opacity:1;fill-rule:evenodd;stroke:none;stroke-width:9;stroke-linecap:round;stroke-linejoin:round;stroke-miterlimit:4;stroke-dasharray:none;stroke-dashoffset:0;stroke-opacity:1"/><path d="m 1462.0306,599.86796 c 4.3282,10.52629 16.0866,36.30002 23.2173,42.8152" id="path5680" style="opacity:1;fill:none;fill-opacity:1;fill-rule:evenodd;stroke:#ffffff;stroke-width:6;stroke-linecap:round;stroke-linejoin:round;stroke-miterlimit:4;stroke-dasharray:none;stroke-dashoffset:0;stroke-opacity:1"/><ellipse cx="1457.7964" cy="590.2262" id="ellipse5682" rx="3.3507791" ry="3.3509858" style="fill:#ffffff;fill-opacity:1;fill-rule:evenodd;stroke:none;stroke-width:1px;stroke-linecap:butt;stroke-linejoin:miter;stroke-opacity:1"/><path d="m 1540.5168,541.86235 c 3.3818,12.37573 1.4049,22.61237 -1.2487,32.94219" id="path5684" style="opacity:1;fill:none;fill-opacity:0;fill-rule:evenodd;stroke:#ffffff;stroke-width:6;stroke-linecap:round;stroke-linejoin:round;stroke-miterlimit:4;stroke-dasharray:none;stroke-dashoffset:0;stroke-opacity:1"/><ellipse cx="1580.5249" cy="379.40598" id="ellipse5686" rx="3.4436798" ry="3.4438908" style="fill:#ffffff;fill-opacity:1;fill-rule:evenodd;stroke:#ffffff;stroke-width:1px;stroke-linecap:butt;stroke-linejoin:miter;stroke-opacity:1" transform="matrix(0.99544772,0.09530921,-0.09530481,0.99544814,0,0)"/><path d="m 1341.7671,507.84874 c -0.6691,-0.42053 1.2487,-6.04096 7.3975,-14.32649 6.0488,-8.15086 16.5616,-19.10895 32.3507,-27.30148 14.8443,-7.67095 33.3104,-12.46628 53.7801,-11.92549 0.2525,0.007 0.5049,0.0142 0.7569,0.0224 20.9107,0.67425 39.4913,6.62568 54.2501,14.56433 15.1216,8.12419 25.5036,17.96864 31.8078,25.59961 6.3184,7.64822 8.5471,12.8986 7.9005,13.36708 -0.8383,0.60739 -4.4784,-3.58305 -11.5465,-9.86154 -7.1046,-6.31083 -17.5912,-14.54661 -32.0654,-21.38302 -14.123,-6.66199 -31.4256,-11.68865 -50.6644,-12.29173 -0.2319,-0.007 -0.4639,-0.0136 -0.6962,-0.0194 -18.8124,-0.46959 -35.762,3.4314 -49.6857,9.79392 -14.759,6.70997 -25.4355,15.99024 -32.2889,22.79834 -6.9501,6.90408 -10.3876,11.53465 -11.2965,10.96341 z" id="path5688" style="opacity:1;fill:#ffffff;fill-opacity:1;fill-rule:evenodd;stroke:none;stroke-width:20;stroke-linecap:round;stroke-linejoin:round;stroke-miterlimit:4;stroke-dasharray:none;stroke-dashoffset:0;stroke-opacity:1"/></g></g></svg>