<?xml version="1.0" ?><svg height="128" id="svg6449" version="1.1" viewBox="0 0 33.866666 33.866668" width="128" xmlns="http://www.w3.org/2000/svg" xmlns:cc="http://creativecommons.org/ns#" xmlns:dc="http://purl.org/dc/elements/1.1/" xmlns:inkscape="http://www.inkscape.org/namespaces/inkscape" xmlns:rdf="http://www.w3.org/1999/02/22-rdf-syntax-ns#" xmlns:sodipodi="http://sodipodi.sourceforge.net/DTD/sodipodi-0.dtd" xmlns:svg="http://www.w3.org/2000/svg"><defs id="defs6443"><clipPath clipPathUnits="userSpaceOnUse" id="clipPath5143"><ellipse cx="209.94763" cy="1573.1123" id="ellipse5145" rx="55.764446" ry="55.766594" style="display:inline;opacity:0.43500001;fill:#ffaaaa;fill-rule:evenodd;stroke:#333333;stroke-width:4.21448183;stroke-linecap:round;stroke-linejoin:round;stroke-miterlimit:4;stroke-dasharray:none;stroke-dashoffset:6.5999999;stroke-opacity:1"/></clipPath><clipPath clipPathUnits="userSpaceOnUse" id="clipPath11046"><ellipse cx="209.94763" cy="1380.6261" id="ellipse11048" rx="55.76445" ry="55.766594" style="display:inline;opacity:0.47600002;fill:#ffaaaa;fill-rule:evenodd;stroke:#333333;stroke-width:4.21448183;stroke-linecap:round;stroke-linejoin:round;stroke-miterlimit:4;stroke-dasharray:none;stroke-dashoffset:6.5999999;stroke-opacity:1"/></clipPath><clipPath clipPathUnits="userSpaceOnUse" id="clipPath8754"><ellipse cx="205.48343" cy="1298.3982" id="ellipse8756" rx="78.18396" ry="83.010139" style="display:inline;opacity:0.419;fill:#ffaaaa;fill-opacity:1;fill-rule:evenodd;stroke:#333333;stroke-width:4.21448183;stroke-linecap:round;stroke-linejoin:round;stroke-miterlimit:4;stroke-dasharray:none;stroke-dashoffset:6.5999999;stroke-opacity:1"/></clipPath><clipPath clipPathUnits="userSpaceOnUse" id="clipPath5060"><ellipse cx="68.499527" cy="1656.6876" id="ellipse5062" rx="71.409416" ry="71.223892" style="display:inline;opacity:0.45199998;fill:#ffe680;fill-rule:evenodd;stroke:#333333;stroke-width:4.21448183;stroke-linecap:round;stroke-linejoin:round;stroke-miterlimit:4;stroke-dasharray:none;stroke-dashoffset:6.5999999;stroke-opacity:1"/></clipPath><clipPath clipPathUnits="userSpaceOnUse" id="clipPath6174"><ellipse cx="128.2972" cy="1416.0679" id="ellipse6176" rx="55.76445" ry="55.766594" style="display:inline;opacity:0.572;fill:#ff9696;fill-opacity:1;fill-rule:evenodd;stroke:#333333;stroke-width:4.21448183;stroke-linecap:round;stroke-linejoin:round;stroke-miterlimit:4;stroke-dasharray:none;stroke-dashoffset:6.5999999;stroke-opacity:1"/></clipPath><clipPath clipPathUnits="userSpaceOnUse" id="clipPath5292"><ellipse cx="554.68481" cy="1234.8002" id="ellipse5294" rx="46.906162" ry="46.90797" style="display:inline;opacity:0.469;fill:#ffaaaa;fill-rule:evenodd;stroke:#333333;stroke-width:3.5625;stroke-linecap:round;stroke-linejoin:round;stroke-miterlimit:4;stroke-dasharray:none;stroke-dashoffset:6.5999999;stroke-opacity:1"/></clipPath><clipPath clipPathUnits="userSpaceOnUse" id="clipPath6537"><ellipse cx="2254.0229" cy="1364.222" id="ellipse6539" rx="114.45508" ry="114.4127" style="display:inline;fill:#d9ed88;fill-opacity:0.6;fill-rule:evenodd;stroke:#333333;stroke-width:9.00000095;stroke-linecap:round;stroke-linejoin:round;stroke-miterlimit:4;stroke-dasharray:none;stroke-dashoffset:6.5999999;stroke-opacity:1"/></clipPath></defs><g id="layer1" transform="translate(0,-263.13332)"><g id="g5324" transform="matrix(0.28222223,0,0,0.28222223,-85.810023,-54.139715)"><g id="g5184" transform="translate(154.10362,-392.64649)"><ellipse cx="211.01534" cy="1628.6257" id="ellipse5081" rx="53.059589" ry="7.7109265" style="opacity:0.694;fill:#808080;fill-rule:evenodd;stroke:none;stroke-width:0.47325075px;stroke-linecap:butt;stroke-linejoin:miter;stroke-opacity:1"/><ellipse cx="209.94763" cy="1575.2217" id="ellipse5083" rx="55.76445" ry="55.766594" style="display:inline;fill:#ffd479;fill-opacity:1;fill-rule:evenodd;stroke:#333333;stroke-width:4.21448183;stroke-linecap:round;stroke-linejoin:round;stroke-miterlimit:4;stroke-dasharray:none;stroke-dashoffset:6.5999999;stroke-opacity:1"/><path d="m 257.83155,1570.1186 c 1.65231,6.0465 0.68641,11.0479 -0.61012,16.0948" id="path5085" style="opacity:1;fill:none;fill-opacity:0;fill-rule:evenodd;stroke:#ffffff;stroke-width:2.80965424;stroke-linecap:round;stroke-linejoin:round;stroke-miterlimit:4;stroke-dasharray:none;stroke-dashoffset:0;stroke-opacity:1"/><ellipse cx="404.043" cy="1531.9664" id="ellipse5087" rx="1.6825458" ry="1.6826104" style="fill:#ffffff;fill-opacity:1;fill-rule:evenodd;stroke:#ffffff;stroke-width:0.46827573px;stroke-linecap:butt;stroke-linejoin:miter;stroke-opacity:1" transform="rotate(5.4689904)"/><path d="m 163.96494,1555.1591 c 0.0371,0.023 3.19764,-11.8609 19.45002,-20.2782 7.24571,-3.7379 16.25639,-6.0739 26.24495,-5.8102 0.12325,0 0.24638,0.01 0.36939,0.011 10.20392,0.3289 19.27236,3.2296 26.47851,7.0984 7.38317,3.9594 12.45666,8.7569 15.5429,12.4751 3.09292,3.7262 4.1926,6.2834 3.88811,6.504 -0.39823,0.2885 -2.16586,-1.767 -5.61357,-4.845 -3.46496,-3.0934 -8.58802,-7.1296 -15.66481,-10.4795 -6.90524,-3.2647 -15.36887,-5.7277 -24.78162,-6.0229 -0.11343,0 -0.22697,-0.01 -0.3406,-0.01 -9.20428,-0.23 -17.49728,1.6828 -24.30735,4.8014 -7.21896,3.2897 -12.43413,7.8367 -15.77649,11.1732 -3.38962,3.3838 -5.05743,5.6538 -5.48944,5.3823 z" id="path5089" style="opacity:1;fill:#ffffff;fill-opacity:1;fill-rule:evenodd;stroke:none;stroke-width:9.46501446;stroke-linecap:round;stroke-linejoin:round;stroke-miterlimit:4;stroke-dasharray:none;stroke-dashoffset:0;stroke-opacity:1"/><g clip-path="url(#clipPath5143)" id="g5141"><g clip-path="none" id="g5079" style="stroke-width:1.22063828" transform="matrix(0.81884882,0,0,0.81963837,31.45413,456.33151)"><path d="m 221.55758,1366.7123 c -29.01748,-0.5935 -47.40466,22.7857 -48.8179,45.1469 -1.80802,28.6077 23.20441,47.6643 45.20962,48.5704 23.07244,0.9502 49.38109,-12.4596 51.3649,-46.8587 1.29796,-22.5057 -21.36673,-46.3188 -47.75662,-46.8586 z" id="path5059" style="fill:#ff9955;fill-opacity:1;fill-rule:evenodd;stroke:#333333;stroke-width:5.03513288;stroke-linecap:round;stroke-linejoin:round;stroke-miterlimit:4;stroke-dasharray:none;stroke-opacity:1"/><path d="m 219.70899,1373.8704 c -0.93561,-8.3835 -0.66486,-16.7671 0.1956,-25.1505 1.15066,0.4922 2.30129,0.7715 3.45195,2.4208 -1.11563,8.1075 -1.43578,15.9288 0.23799,23.0323 z" id="path5061" style="fill:#a05a2c;fill-opacity:1;fill-rule:evenodd;stroke:#333333;stroke-width:5.03513288;stroke-linecap:round;stroke-linejoin:round;stroke-miterlimit:4;stroke-dasharray:none;stroke-opacity:1"/><path d="m 169.85239,1385.1822 c 11.23854,-12.9985 29.49498,-9.4857 41.49523,-14.3358 3.44164,-1.3909 7.11044,-7.1678 7.11044,-7.1678 0,0 -8.17841,-9.6957 -20.06329,-8.5676 -15.03922,1.4273 -23.17861,16.3072 -28.54238,30.0712 z" id="path5063" style="fill:#5aa02c;fill-rule:evenodd;stroke:#333333;stroke-width:5.03513288;stroke-linecap:round;stroke-linejoin:round;stroke-miterlimit:4;stroke-dasharray:none;stroke-opacity:1"/><path d="m 211.26716,1378.0334 c 7.65363,-3.438 13.70933,-2.8275 21.24911,-0.4044" id="path5065" style="fill:none;fill-rule:evenodd;stroke:#333333;stroke-width:5.03513288;stroke-linecap:round;stroke-linejoin:round;stroke-miterlimit:4;stroke-dasharray:none;stroke-opacity:1"/></g><path d="m 213.11054,1578.4164 c -22.68308,-0.4617 -37.05746,17.7211 -38.1622,35.1124 -0.66063,10.4003 3.26167,19.1757 9.38149,25.6468 21.66214,2.8246 47.72176,-34.9846 39.50057,-58.6041 -3.43521,-1.1391 -7.00307,-2.0796 -10.71986,-2.1551 z" id="path5099" style="opacity:1;vector-effect:none;fill:#f5863c;fill-opacity:1;fill-rule:evenodd;stroke:none;stroke-width:0.9375px;stroke-linecap:butt;stroke-linejoin:miter;stroke-miterlimit:4;stroke-dasharray:none;stroke-dashoffset:0;stroke-opacity:1"/></g><path d="m 211.36258,1582.4084 c -0.76613,-6.8714 -0.54442,-13.743 0.16016,-20.6143 0.94222,0.4034 1.88441,0.6323 2.82663,1.9842 -0.91353,6.6452 -1.17569,13.0558 0.19488,18.8781 z" id="path5121" style="fill:#a05a2c;fill-opacity:1;fill-rule:evenodd;stroke:#333333;stroke-width:4.125;stroke-linecap:round;stroke-linejoin:round;stroke-miterlimit:4;stroke-dasharray:none;stroke-opacity:1"/><path d="m 170.53756,1591.68 c 9.20266,-10.6541 24.15193,-7.7749 33.97832,-11.7502 2.81818,-1.14 5.82237,-5.875 5.82237,-5.875 0,0 -6.69688,-7.947 -16.4288,-7.0223 -12.31484,1.1699 -18.97977,13.366 -23.37189,24.6475 z" id="path5123" style="fill:#5aa02c;fill-rule:evenodd;stroke:#333333;stroke-width:4.125;stroke-linecap:round;stroke-linejoin:round;stroke-miterlimit:4;stroke-dasharray:none;stroke-opacity:1"/><path d="m 204.44999,1585.8206 c 6.26717,-2.818 11.22587,-2.3176 17.39981,-0.3315" id="path5125" style="fill:none;fill-rule:evenodd;stroke:#333333;stroke-width:4.125;stroke-linecap:round;stroke-linejoin:round;stroke-miterlimit:4;stroke-dasharray:none;stroke-opacity:1"/></g><path d="m 342.06837,1205.7521 c -5.09573,6.0842 -6.20463,14.8255 -5.92205,17.4554" id="path5228" style="opacity:1;fill:none;fill-opacity:1;fill-rule:evenodd;stroke:#ffffff;stroke-width:2.7711494;stroke-linecap:round;stroke-linejoin:round;stroke-miterlimit:4;stroke-dasharray:none;stroke-dashoffset:0;stroke-opacity:1"/><ellipse cx="-345.85721" cy="1201.6169" id="ellipse5230" rx="1.4877937" ry="1.5887858" style="fill:#ffffff;fill-opacity:1;fill-rule:evenodd;stroke:none;stroke-width:0.4618583px;stroke-linecap:butt;stroke-linejoin:miter;stroke-opacity:1" transform="scale(-1,1)"/></g></g></svg>