<?xml version="1.0" ?><svg height="128" id="svg6449" version="1.1" viewBox="0 0 33.866666 33.866668" width="128" xmlns="http://www.w3.org/2000/svg" xmlns:cc="http://creativecommons.org/ns#" xmlns:dc="http://purl.org/dc/elements/1.1/" xmlns:inkscape="http://www.inkscape.org/namespaces/inkscape" xmlns:rdf="http://www.w3.org/1999/02/22-rdf-syntax-ns#" xmlns:sodipodi="http://sodipodi.sourceforge.net/DTD/sodipodi-0.dtd" xmlns:svg="http://www.w3.org/2000/svg"><defs id="defs6443"><clipPath clipPathUnits="userSpaceOnUse" id="clipPath5143"><ellipse cx="209.94763" cy="1573.1123" id="ellipse5145" rx="55.764446" ry="55.766594" style="display:inline;opacity:0.43500001;fill:#ffaaaa;fill-rule:evenodd;stroke:#333333;stroke-width:4.21448183;stroke-linecap:round;stroke-linejoin:round;stroke-miterlimit:4;stroke-dasharray:none;stroke-dashoffset:6.5999999;stroke-opacity:1"/></clipPath><clipPath clipPathUnits="userSpaceOnUse" id="clipPath11046"><ellipse cx="209.94763" cy="1380.6261" id="ellipse11048" rx="55.76445" ry="55.766594" style="display:inline;opacity:0.47600002;fill:#ffaaaa;fill-rule:evenodd;stroke:#333333;stroke-width:4.21448183;stroke-linecap:round;stroke-linejoin:round;stroke-miterlimit:4;stroke-dasharray:none;stroke-dashoffset:6.5999999;stroke-opacity:1"/></clipPath><clipPath clipPathUnits="userSpaceOnUse" id="clipPath8754"><ellipse cx="205.48343" cy="1298.3982" id="ellipse8756" rx="78.18396" ry="83.010139" style="display:inline;opacity:0.419;fill:#ffaaaa;fill-opacity:1;fill-rule:evenodd;stroke:#333333;stroke-width:4.21448183;stroke-linecap:round;stroke-linejoin:round;stroke-miterlimit:4;stroke-dasharray:none;stroke-dashoffset:6.5999999;stroke-opacity:1"/></clipPath><clipPath clipPathUnits="userSpaceOnUse" id="clipPath5060"><ellipse cx="68.499527" cy="1656.6876" id="ellipse5062" rx="71.409416" ry="71.223892" style="display:inline;opacity:0.45199998;fill:#ffe680;fill-rule:evenodd;stroke:#333333;stroke-width:4.21448183;stroke-linecap:round;stroke-linejoin:round;stroke-miterlimit:4;stroke-dasharray:none;stroke-dashoffset:6.5999999;stroke-opacity:1"/></clipPath><clipPath clipPathUnits="userSpaceOnUse" id="clipPath6174"><ellipse cx="128.2972" cy="1416.0679" id="ellipse6176" rx="55.76445" ry="55.766594" style="display:inline;opacity:0.572;fill:#ff9696;fill-opacity:1;fill-rule:evenodd;stroke:#333333;stroke-width:4.21448183;stroke-linecap:round;stroke-linejoin:round;stroke-miterlimit:4;stroke-dasharray:none;stroke-dashoffset:6.5999999;stroke-opacity:1"/></clipPath><clipPath clipPathUnits="userSpaceOnUse" id="clipPath5292"><ellipse cx="554.68481" cy="1234.8002" id="ellipse5294" rx="46.906162" ry="46.90797" style="display:inline;opacity:0.469;fill:#ffaaaa;fill-rule:evenodd;stroke:#333333;stroke-width:3.5625;stroke-linecap:round;stroke-linejoin:round;stroke-miterlimit:4;stroke-dasharray:none;stroke-dashoffset:6.5999999;stroke-opacity:1"/></clipPath><clipPath clipPathUnits="userSpaceOnUse" id="clipPath6537"><ellipse cx="2254.0229" cy="1364.222" id="ellipse6539" rx="114.45508" ry="114.4127" style="display:inline;fill:#d9ed88;fill-opacity:0.6;fill-rule:evenodd;stroke:#333333;stroke-width:9.00000095;stroke-linecap:round;stroke-linejoin:round;stroke-miterlimit:4;stroke-dasharray:none;stroke-dashoffset:6.5999999;stroke-opacity:1"/></clipPath></defs><g id="layer1" transform="translate(0,-263.13332)"><g id="g8580" style="stroke-width:1.03015637" transform="matrix(0.27396056,0,0,0.27396056,50.748593,-191.96498)"><ellipse cx="-123.43112" cy="1776.3242" id="ellipse5029" rx="53.059589" ry="7.7109265" style="opacity:0.694;fill:#808080;fill-rule:evenodd;stroke:none;stroke-width:0.4875223px;stroke-linecap:butt;stroke-linejoin:miter;stroke-opacity:1"/><ellipse cx="-123.43112" cy="1719.8868" id="ellipse4915" rx="55.76445" ry="55.766594" style="display:inline;fill:#ffe680;fill-rule:evenodd;stroke:#333333;stroke-width:4.34597254;stroke-linecap:round;stroke-linejoin:round;stroke-miterlimit:4;stroke-dasharray:none;stroke-dashoffset:6.5999999;stroke-opacity:1"/><path d="m -75.5472,1714.7837 c 1.65231,6.0465 0.68641,11.0479 -0.61012,16.0948" id="path4917" style="opacity:1;fill:none;fill-opacity:0;fill-rule:evenodd;stroke:#ffffff;stroke-width:2.89438319;stroke-linecap:round;stroke-linejoin:round;stroke-miterlimit:4;stroke-dasharray:none;stroke-dashoffset:0;stroke-opacity:1"/><ellipse cx="85.969414" cy="1707.7463" id="ellipse4919" rx="1.6825458" ry="1.6826104" style="fill:#ffffff;fill-opacity:1;fill-rule:evenodd;stroke:#ffffff;stroke-width:0.48239726px;stroke-linecap:butt;stroke-linejoin:miter;stroke-opacity:1" transform="rotate(5.4689904)"/><path d="m -169.41381,1699.8242 c 0.0371,0.023 3.19764,-11.8609 19.45002,-20.2782 7.24571,-3.7379 16.25639,-6.0739 26.24495,-5.8102 0.12325,0 0.24638,0.01 0.36939,0.011 10.20392,0.3289 19.27236,3.2296 26.478506,7.0984 7.383169,3.9594 12.45666,8.7569 15.542899,12.4751 3.09293,3.7262 4.192608,6.2834 3.888115,6.504 -0.39823,0.2885 -2.165859,-1.767 -5.61357,-4.845 -3.464959,-3.0934 -8.588025,-7.1296 -15.664812,-10.4795 -6.905238,-3.2647 -15.368868,-5.7277 -24.781618,-6.0229 -0.11343,0 -0.22697,-0.01 -0.3406,-0.01 -9.20428,-0.23 -17.49728,1.6828 -24.30735,4.8014 -7.21896,3.2897 -12.43413,7.8367 -15.77649,11.1732 -3.38962,3.3838 -5.05743,5.6538 -5.48944,5.3823 z" id="path4921" style="opacity:1;fill:#ffffff;fill-opacity:1;fill-rule:evenodd;stroke:none;stroke-width:9.75044632;stroke-linecap:round;stroke-linejoin:round;stroke-miterlimit:4;stroke-dasharray:none;stroke-dashoffset:0;stroke-opacity:1"/><g clip-path="none" id="g5057" style="stroke-width:1.03015637" transform="rotate(4.5552752,-122.51438,1717.3094)"><g clip-path="url(#clipPath5060)" id="g4913" style="stroke-width:1.31743133" transform="matrix(0.78091174,0,0,0.78297596,-176.92318,420.68152)"><path d="m 65.621053,1781.1261 c 0,0 1.51816,8.4202 5.00432,10.4465 4.33239,2.5183 7.93464,2.9427 12.12585,0.1935 4.26121,-2.795 7.50648,-11.9943 7.50648,-11.9943 z" id="path4895" style="fill:#ffe680;fill-opacity:1;fill-rule:evenodd;stroke:#333333;stroke-width:5.43440437;stroke-linecap:butt;stroke-linejoin:miter;stroke-miterlimit:4;stroke-dasharray:none;stroke-opacity:1"/><path d="m 70.817843,1660.1083 c -28.27268,3.1344 -38.28566,31.0211 -43.49908,55.3282 -5.84286,27.2417 9.48157,54.4649 31.18075,66.5486 21.34261,11.8852 50.527437,-3.51 59.666887,-22.0539 8.54848,-17.3448 7.96981,-39.6586 1.92473,-58.0366 -6.60893,-20.0922 -27.913097,-44.1545 -49.273287,-41.7863 z" id="path4897" style="fill:#ffdd55;fill-rule:evenodd;stroke:#333333;stroke-width:5.43440437;stroke-linecap:butt;stroke-linejoin:miter;stroke-miterlimit:4;stroke-dasharray:none;stroke-opacity:1"/><path d="m 70.37526,1662.7342 c -26.674182,3.8893 -36.216897,30.6342 -40.930837,52.9254 -4.71346,22.289 5.01696,44.5629 20.65126,57.977 18.44379,-8.2624 62.115187,-41.3472 20.279577,-110.9024 z" id="path4901" style="opacity:1;vector-effect:none;fill:#f4d34f;fill-opacity:1;fill-rule:evenodd;stroke:none;stroke-width:1.23509169px;stroke-linecap:butt;stroke-linejoin:miter;stroke-miterlimit:4;stroke-dasharray:none;stroke-dashoffset:0;stroke-opacity:1"/><g id="g4933" style="stroke-width:1.54423845" transform="matrix(0.8545976,0,0,0.85165874,8.8275112,245.54881)"><path d="m 64.090683,1654.5251 c 3.97623,-2.1303 7.17507,-4.7814 10.40277,-7.4132 l -0.78358,-2.3089 c -2.56871,3.7859 -8.10276,6.5768 -9.61919,9.7221 z" id="path4899" style="fill:none;fill-rule:evenodd;stroke:#333333;stroke-width:6.36998272;stroke-linecap:round;stroke-linejoin:round;stroke-miterlimit:4;stroke-dasharray:none;stroke-opacity:1"/><path d="m 66.005993,1652.1766 c 0,0 -0.37748,14.6421 -7.314,21.0866 -10.96778,10.1901 -45.94562,18.4879 -48.31092,22.0539 0,0 12.01006,-33.9837 24.44418,-42.1733 16.99457,-11.1931 31.18074,-0.9672 31.18074,-0.9672 z" id="path4903" style="fill:#00aa44;fill-rule:evenodd;stroke:#333333;stroke-width:6.36998272;stroke-linecap:round;stroke-linejoin:round;stroke-miterlimit:4;stroke-dasharray:none;stroke-opacity:1"/></g><path d="m 72.838833,1662.2363 c 0.91784,-8.2373 0.0517,-16.8504 -0.0963,-25.1493 l 2.11721,1.1609 c 0.86651,7.8924 1.28913,15.6666 1.92472,23.7949 z" id="path4905" style="fill:none;fill-rule:evenodd;stroke:#333333;stroke-width:5.43440437;stroke-linecap:round;stroke-linejoin:round;stroke-miterlimit:4;stroke-dasharray:none;stroke-opacity:1"/><path d="m -1088.893,1914.7634 h 127.70003 l -25.16717,173.8464 h -68.04456 z" id="path4939" style="fill:none;fill-rule:evenodd;stroke:#aa8800;stroke-width:7.41055155;stroke-linecap:butt;stroke-linejoin:miter;stroke-miterlimit:4;stroke-dasharray:none;stroke-opacity:1"/></g><path d="m -103.91954,1737.4547 c 7.482652,5.399 9.96628,14.2191 12.12095,21.9912" id="path4935" style="opacity:1;fill:none;fill-opacity:1;fill-rule:evenodd;stroke:#ffffff;stroke-width:2.41442919;stroke-linecap:round;stroke-linejoin:round;stroke-miterlimit:4;stroke-dasharray:none;stroke-dashoffset:0;stroke-opacity:1"/><ellipse cx="-553.54187" cy="1647.627" id="ellipse4937" rx="1.5781486" ry="1.5782092" style="fill:#ffffff;fill-opacity:1;fill-rule:evenodd;stroke:none;stroke-width:0.4875223px;stroke-linecap:butt;stroke-linejoin:miter;stroke-opacity:1" transform="rotate(-15)"/></g></g></g></svg>